# xmcd
#
# Track frame offsets:
#	150
#	23117
#	39725
#	60370
#	79747
#	99612
#	126927
#	151870
#	174635
#	205912
#	232970
#	265955
#
# Disc length: 3881
#
# Revision: 7
# Processed by: cddbd v1.5.1PL0 Copyright (c) Steve Scherf et al.
# Submitted via: CDex 1.50beta10
# Normalized: r6:DSETVAR1,TDELIM( - )
#
DISCID=980f270c
DTITLE=Various Artist - Lexington Avenue -no room for squares III
DYEAR=1995
DGENRE=Jazz
TTITLE0=Kenny Dorham - Afrodesia
TTITLE1=Jutta Hipp - Mad About The Boy
TTITLE2=Gill Melle - Long Ago And Far Away
TTITLE3=Horace Silver - The Preacher
TTITLE4=Herbie Nichols - The Lady Sings The Blues
TTITLE5=Kenny Burrell - Delilah
TTITLE6=Jimmy Smith - Judo Mambo
TTITLE7=Johnny Griffin - It's Alright With Me
TTITLE8=J.R. Monterose - WeeJay
TTITLE9=Lou Donaldson - Caracas
TTITLE10=Lee Morgan - Whisper Not
TTITLE11=Cliff Jordan and John Gilmore - Status Quo
EXTD=
EXTT0=
EXTT1=
EXTT2=
EXTT3=
EXTT4=
EXTT5=
EXTT6=
EXTT7=
EXTT8=
EXTT9=
EXTT10=
EXTT11=
PLAYORDER=
